<svg width="336" height="137" viewBox="0 0 336 137" fill="none" xmlns="http://www.w3.org/2000/svg">
<g clip-path="url(#clip0_4814_2)">
<path d="M84.0402 92.57C85.0102 92.57 85.5002 93.04 85.5002 93.96V99.98C85.5002 100.91 85.0102 101.37 84.0402 101.37H56.3502C54.7002 101.37 53.3402 101.51 52.2602 101.78C51.1802 102.06 50.3202 102.52 49.6602 103.17C49.0002 103.83 48.5502 104.71 48.3002 105.83C48.0502 106.95 47.9202 108.33 47.9202 109.98V110.61H83.7202C84.6502 110.61 85.1102 111.08 85.1102 112V117.01C85.1102 117.94 84.6402 118.4 83.7202 118.4H47.9202V119.48C47.9202 121.13 48.0502 122.51 48.3002 123.63C48.5502 124.75 49.0102 125.64 49.6602 126.29C50.3102 126.95 51.1802 127.41 52.2602 127.68C53.3402 127.96 54.7002 128.09 56.3502 128.09H84.0402C85.0102 128.09 85.5002 128.56 85.5002 129.48V135.5C85.5002 136.43 85.0102 136.89 84.0402 136.89H56.1602C52.9502 136.89 50.2202 136.6 47.9902 136C45.7502 135.41 43.9202 134.45 42.5102 133.12C41.0902 131.79 40.0602 130.06 39.4102 127.92C38.7502 125.79 38.4302 123.2 38.4302 120.16V109.26C38.4302 106.22 38.7602 103.64 39.4102 101.53C40.0602 99.42 41.1002 97.7 42.5102 96.37C43.9202 95.04 45.7502 94.07 47.9902 93.46C50.2302 92.85 52.9502 92.54 56.1602 92.54H84.0402V92.57Z" fill="#231F20"/>
<path d="M100.26 92.3496C101.19 92.3496 101.65 92.8196 101.65 93.7396V135.53C101.65 136.46 101.18 136.92 100.26 136.92H94.0502C93.1202 136.92 92.6602 136.46 92.6602 135.53V93.7396C92.6602 92.8096 93.1202 92.3496 94.0502 92.3496H100.26Z" fill="#231F20"/>
<path d="M163.94 102.14V93.7796C163.94 92.8496 164.4 92.3896 165.33 92.3896H171.6C172.53 92.3896 172.99 92.8596 172.99 93.7796V102.14H184.08C184.84 102.14 185.22 102.52 185.22 103.28V108.48C185.22 109.24 184.84 109.62 184.08 109.62H172.99V124.32C172.99 126.09 173.35 127.39 174.07 128.22C174.79 129.04 176.2 129.46 178.32 129.46H184.47C185.23 129.46 185.61 129.84 185.61 130.6V135.8C185.61 136.56 185.23 136.94 184.47 136.94H176.8C174.27 136.94 172.17 136.71 170.53 136.24C168.88 135.78 167.56 135.04 166.57 134.02C165.58 133.01 164.89 131.7 164.51 130.09C164.13 128.49 163.94 126.56 163.94 124.32V109.62H157.92C157.16 109.62 156.78 109.24 156.78 108.48V103.28C156.78 102.52 157.16 102.14 157.92 102.14H163.94Z" fill="#231F20"/>
<path d="M223.37 102.14C224.13 102.14 224.51 102.52 224.51 103.28V108.6C224.51 109.36 224.13 109.74 223.37 109.74H206.52C205.17 109.74 204.05 109.86 203.16 110.09C202.27 110.32 201.56 110.7 201.04 111.23C200.52 111.76 200.14 112.48 199.93 113.38C199.72 114.29 199.61 115.4 199.61 116.71V135.53C199.61 136.46 199.14 136.92 198.22 136.92H192.01C191.04 136.92 190.55 136.46 190.55 135.53V115C190.55 112.72 190.8 110.77 191.31 109.14C191.82 107.51 192.65 106.18 193.81 105.15C194.97 104.12 196.51 103.36 198.44 102.87C200.36 102.38 202.76 102.14 205.63 102.14H223.37Z" fill="#231F20"/>
<path d="M237.24 89.2695C238.17 89.2695 238.63 89.7395 238.63 90.6595V96.6795C238.63 97.6495 238.16 98.1395 237.24 98.1395H231.03C230.06 98.1395 229.57 97.6495 229.57 96.6795V90.6595C229.57 89.7295 230.06 89.2695 231.03 89.2695H237.24ZM237.24 102.14C238.17 102.14 238.63 102.63 238.63 103.6V135.53C238.63 136.46 238.16 136.92 237.24 136.92H231.03C230.1 136.92 229.64 136.46 229.64 135.53V103.6C229.64 102.63 230.1 102.14 231.03 102.14H237.24Z" fill="#231F20"/>
<path d="M285.72 102.14C286.48 102.14 286.86 102.52 286.86 103.28V108.6C286.86 109.36 286.48 109.74 285.72 109.74H261.14C259.75 109.74 258.61 109.86 257.72 110.09C256.83 110.32 256.14 110.7 255.63 111.23C255.12 111.76 254.76 112.48 254.55 113.38C254.34 114.29 254.23 115.4 254.23 116.71V122.35C254.23 123.7 254.33 124.82 254.55 125.71C254.76 126.6 255.12 127.3 255.63 127.83C256.14 128.36 256.83 128.74 257.72 128.97C258.61 129.2 259.75 129.32 261.14 129.32H285.72C286.48 129.32 286.86 129.7 286.86 130.46V135.78C286.86 136.54 286.48 136.92 285.72 136.92H260.25C257.38 136.92 254.98 136.69 253.06 136.22C251.14 135.76 249.6 135.01 248.43 133.97C247.27 132.94 246.43 131.6 245.93 129.98C245.42 128.35 245.17 126.4 245.17 124.12V115C245.17 112.72 245.42 110.77 245.93 109.14C246.44 107.51 247.27 106.18 248.43 105.15C249.59 104.12 251.13 103.36 253.06 102.87C254.98 102.38 257.38 102.14 260.25 102.14H285.72Z" fill="#231F20"/>
<path d="M321.01 102.14C323.84 102.14 326.23 102.38 328.17 102.87C330.11 103.36 331.66 104.12 332.83 105.15C333.99 106.19 334.83 107.52 335.33 109.14C335.84 110.77 336.09 112.72 336.09 115V131.85C336.09 132.86 336.02 133.7 335.87 134.35C335.72 135.01 335.47 135.52 335.11 135.9C334.75 136.28 334.28 136.54 333.68 136.69C333.09 136.84 332.33 136.91 331.4 136.91H301.24C299.38 136.91 297.83 136.73 296.58 136.37C295.33 136.01 294.33 135.47 293.57 134.75C292.81 134.03 292.27 133.1 291.95 131.96C291.63 130.82 291.48 129.47 291.48 127.9V124.86C291.48 123.55 291.64 122.38 291.95 121.34C292.27 120.31 292.81 119.43 293.57 118.71C294.33 117.99 295.33 117.45 296.58 117.09C297.83 116.73 299.38 116.55 301.24 116.55H327.03V115.35C327.03 114.34 326.92 113.47 326.71 112.75C326.5 112.03 326.14 111.45 325.63 111.01C325.12 110.57 324.43 110.24 323.54 110.03C322.65 109.82 321.51 109.71 320.12 109.71H293.63C292.87 109.71 292.49 109.33 292.49 108.57V103.25C292.49 102.49 292.87 102.11 293.63 102.11H321L321.01 102.14ZM325.19 129.95C325.87 129.95 326.34 129.79 326.62 129.47C326.89 129.15 327.03 128.59 327.03 127.79V122.21H303.84C302.53 122.21 301.61 122.47 301.08 123C300.55 123.53 300.29 124.3 300.29 125.31V126.64C300.29 127.78 300.55 128.61 301.08 129.14C301.61 129.67 302.53 129.93 303.84 129.93H325.19V129.95Z" fill="#231F20"/>
<path d="M0 89.7797V0.179688H73.05V21.0897H26.06V33.9097H54.11V54.8197H25.99V68.8797H85.31V89.7897H0V89.7797Z" fill="url(#paint0_linear_4814_2)"/>
<path d="M82.4002 26.46C82.8802 26.46 83.2602 26.53 83.5202 26.66C83.7802 26.79 84.0502 26.99 84.3102 27.25L97.2702 39.09L110.56 27.25C110.78 26.99 111.02 26.79 111.28 26.66C111.54 26.53 111.92 26.46 112.4 26.46H119.84C120.45 26.46 120.82 26.67 120.93 27.08C121.04 27.5 120.92 27.88 120.57 28.23L103 44.35L121.1 60.87C121.41 61.22 121.52 61.59 121.43 61.99C121.34 62.38 120.99 62.58 120.38 62.58H112.02C111.54 62.58 111.15 62.51 110.87 62.38C110.58 62.25 110.33 62.07 110.11 61.85L96.1602 49.08L81.8102 61.85C81.5902 62.07 81.3502 62.24 81.0902 62.38C80.8302 62.52 80.4502 62.58 79.9702 62.58H72.5302C71.9202 62.58 71.5502 62.38 71.4402 61.99C71.3302 61.6 71.4402 61.22 71.8002 60.87L90.3602 43.83L73.3802 28.23C73.0302 27.88 72.9002 27.5 72.9902 27.08C73.0802 26.66 73.4302 26.46 74.0402 26.46H82.4002Z" fill="url(#paint1_linear_4814_2)"/>
<path d="M160.5 26.46C163.44 26.46 165.92 26.71 167.94 27.22C169.96 27.72 171.57 28.51 172.78 29.59C173.99 30.67 174.85 32.05 175.38 33.74C175.91 35.43 176.17 37.46 176.17 39.83V49.31C176.17 51.68 175.91 53.71 175.38 55.4C174.85 57.09 173.99 58.47 172.78 59.55C171.57 60.63 169.96 61.4 167.94 61.89C165.92 62.37 163.44 62.61 160.5 62.61H135.82V90.02C135.82 90.98 135.34 91.47 134.37 91.47H127.92C126.91 91.47 126.41 90.99 126.41 90.02V39.84C126.41 37.47 126.67 35.44 127.2 33.75C127.73 32.06 128.59 30.68 129.8 29.6C131.01 28.53 132.61 27.74 134.6 27.23C136.6 26.73 139.08 26.47 142.07 26.47H160.49L160.5 26.46ZM135.83 54.69H159.58C161.03 54.69 162.21 54.58 163.13 54.36C164.05 54.14 164.79 53.75 165.33 53.18C165.88 52.61 166.26 51.86 166.48 50.94C166.7 50.02 166.81 48.86 166.81 47.45V41.59C166.81 40.23 166.7 39.08 166.48 38.14C166.26 37.2 165.88 36.45 165.33 35.9C164.78 35.35 164.05 34.96 163.13 34.72C162.21 34.48 161.02 34.36 159.58 34.36H143C141.6 34.36 140.43 34.48 139.51 34.72C138.59 34.96 137.85 35.36 137.31 35.9C136.76 36.45 136.38 37.19 136.16 38.14C135.94 39.08 135.83 40.24 135.83 41.59V54.68V54.69Z" fill="url(#paint2_linear_4814_2)"/>
<path d="M217.62 26.46C220.56 26.46 223.04 26.71 225.06 27.22C227.08 27.72 228.69 28.51 229.9 29.59C231.11 30.67 231.97 32.05 232.5 33.74C233.03 35.43 233.29 37.46 233.29 39.83V49.31C233.29 51.68 233.03 53.71 232.5 55.4C231.97 57.09 231.11 58.47 229.9 59.55C228.69 60.63 227.08 61.4 225.06 61.89C223.04 62.37 220.56 62.61 217.62 62.61H199C196.02 62.61 193.53 62.37 191.53 61.89C189.53 61.41 187.93 60.63 186.73 59.55C185.52 58.48 184.66 57.09 184.13 55.4C183.6 53.71 183.34 51.68 183.34 49.31V39.83C183.34 37.46 183.6 35.43 184.13 33.74C184.66 32.05 185.52 30.67 186.73 29.59C187.94 28.52 189.54 27.73 191.53 27.22C193.53 26.72 196.01 26.46 199 26.46H217.62ZM192.74 47.65C192.74 49.05 192.85 50.22 193.07 51.14C193.29 52.06 193.67 52.8 194.22 53.34C194.77 53.89 195.5 54.28 196.42 54.52C197.34 54.76 198.5 54.88 199.91 54.88H216.69C218.14 54.88 219.32 54.76 220.24 54.52C221.16 54.28 221.9 53.88 222.44 53.34C222.99 52.79 223.37 52.06 223.59 51.14C223.81 50.22 223.92 49.06 223.92 47.65V41.4C223.92 40.04 223.81 38.9 223.59 37.98C223.37 37.06 222.99 36.31 222.44 35.74C221.89 35.17 221.16 34.78 220.24 34.56C219.32 34.34 218.13 34.23 216.69 34.23H199.91C198.51 34.23 197.34 34.34 196.42 34.56C195.5 34.78 194.76 35.17 194.22 35.74C193.67 36.31 193.29 37.06 193.07 37.98C192.85 38.9 192.74 40.04 192.74 41.4V47.65Z" fill="url(#paint3_linear_4814_2)"/>
<path d="M125.54 103.82V102.47H125.55V102.14H123.38C120.51 102.14 118.11 102.38 116.19 102.87C114.27 103.36 112.73 104.12 111.56 105.15C110.4 106.19 109.56 107.52 109.06 109.14C108.55 110.77 108.3 112.72 108.3 115V124.12C108.3 126.4 108.55 128.36 109.06 129.98C109.57 131.61 110.4 132.94 111.56 133.97C112.72 135.01 114.26 135.75 116.19 136.22C118.11 136.69 120.51 136.92 123.38 136.92H150.69C151.45 136.92 151.83 136.54 151.83 135.78V130.46C151.83 129.7 151.45 129.32 150.69 129.32H124.27C121.52 129.32 119.68 128.88 118.73 127.99C117.78 127.1 117.3 125.67 117.3 123.68V122.16H149.3C150.52 122.16 151.43 121.9 152.02 121.37C152.61 120.84 152.91 119.9 152.91 118.55V112.53C152.91 110.63 152.74 109.01 152.4 107.68C152.06 106.35 151.48 105.27 150.66 104.45C149.84 103.63 148.72 103.04 147.3 102.68C145.88 102.32 144.1 102.14 141.95 102.14H136.65V103.86L136.64 109.17H140.18C141.66 109.17 142.67 109.45 143.22 109.99C143.77 110.54 144.04 111.47 144.04 112.78V115.44C144.04 116.16 143.68 116.52 142.96 116.52H117.3V114.81C117.3 112.78 117.78 111.34 118.73 110.47C119.68 109.6 121.53 109.17 124.27 109.17H125.54" fill="#231F20"/>
<path d="M135.82 100.4C135.82 99.4397 135.33 98.9497 134.32 98.9397L127.87 98.8896C126.91 98.8896 126.42 99.3597 126.41 100.33L126.39 102.45H126.38V103.8L126.34 108.68H126.38V110.51C126.38 111.47 126.88 111.96 127.89 111.96H134.34C135.3 111.96 135.79 111.48 135.79 110.51V103.84L135.82 100.41V100.4Z" fill="url(#paint4_linear_4814_2)"/>
<path d="M330.47 58.4004H249.78C247.035 58.4004 244.81 60.6255 244.81 63.3704V84.2604C244.81 87.0052 247.035 89.2304 249.78 89.2304H330.47C333.215 89.2304 335.44 87.0052 335.44 84.2604V63.3704C335.44 60.6255 333.215 58.4004 330.47 58.4004Z" fill="url(#paint5_linear_4814_2)"/>
<path d="M250.83 76.2104C250.83 74.3804 252.03 73.1604 254.97 72.9504L260.2 72.6204C263.54 72.4104 263.77 72.3504 263.77 70.8904C263.77 69.6704 263.65 69.4104 260.72 69.4104H257.69C255.75 69.4104 255.15 69.7004 255.15 71.2404V71.8804H250.82V70.1304C250.82 67.1804 252.55 66.1904 256.68 66.1904H262.7C266.99 66.1904 268.1 67.4704 268.1 70.5804C268.1 74.9704 267.3 75.7104 261.96 76.0004L257.24 76.2504C255.32 76.3504 255.03 76.7204 255.03 78.0604H268.31V81.2804H250.83V76.2104Z" fill="white"/>
<path d="M270.73 72.0404C270.73 67.5004 272.38 66.1904 277.27 66.1904H282.63C287.51 66.1904 289.17 67.5104 289.17 72.0404V76.2004C289.17 80.0804 287.4 81.4404 283.83 81.4404H276.08C272.52 81.4404 270.74 80.0804 270.74 76.2004V72.0404H270.73ZM275.18 75.4204C275.18 76.9704 275.67 77.7304 277.82 77.7304H282.07C284.21 77.7304 284.71 76.9704 284.71 75.4204V72.2004C284.71 70.6504 284.22 69.8904 282.07 69.8904H277.82C275.68 69.8904 275.18 70.6504 275.18 72.2004V75.4204Z" fill="white"/>
<path d="M291.57 76.2104C291.57 74.3804 292.77 73.1604 295.71 72.9504L300.94 72.6204C304.28 72.4104 304.51 72.3504 304.51 70.8904C304.51 69.6704 304.39 69.4104 301.46 69.4104H298.43C296.49 69.4104 295.89 69.7004 295.89 71.2404V71.8804H291.56V70.1304C291.56 67.1804 293.29 66.1904 297.42 66.1904H303.44C307.73 66.1904 308.84 67.4704 308.84 70.5804C308.84 74.9704 308.04 75.7104 302.7 76.0004L297.98 76.2504C296.06 76.3504 295.77 76.7204 295.77 78.0604H309.05V81.2804H291.57V76.2104Z" fill="white"/>
<path d="M318.885 78.6043H323.245C325.079 78.6043 325.597 78.1942 325.597 76.8561C325.597 75.5396 325.101 75.1511 323.158 75.1511H318.971C317.029 75.1511 316.532 75.5396 316.532 76.8561C316.532 78.1942 317.05 78.6043 318.885 78.6043ZM312 76.4892V72.1295C312 67.3813 313.727 66 318.842 66H323.827C328.381 66 328.946 67.5575 328.946 69.5431V70.7734L325.446 70.7914C325.446 69.7338 324.755 69.3669 323.072 69.3669H318.863C317.223 69.3669 316.532 70.0144 316.532 71.2446V73.1007C317.309 72.3237 318.216 71.9137 320.094 71.9137H324.561C328.536 71.8957 329.356 73.428 329.356 76.2554V77.6151C329.356 81.4568 328.212 81.5 324.5 81.5H317.5C313.766 81.5 312 80.5468 312 76.4892Z" fill="white"/>
</g>
<defs>
<linearGradient id="paint0_linear_4814_2" x1="0" y1="44.9797" x2="85.32" y2="44.9797" gradientUnits="userSpaceOnUse">
<stop stop-color="#F6AE3D"/>
<stop offset="1" stop-color="#F0902B"/>
</linearGradient>
<linearGradient id="paint1_linear_4814_2" x1="71.4002" y1="44.52" x2="121.45" y2="44.52" gradientUnits="userSpaceOnUse">
<stop stop-color="#F6AE3D"/>
<stop offset="1" stop-color="#F0902B"/>
</linearGradient>
<linearGradient id="paint2_linear_4814_2" x1="126.42" y1="58.95" x2="176.16" y2="58.95" gradientUnits="userSpaceOnUse">
<stop stop-color="#F6AE3D"/>
<stop offset="1" stop-color="#F0902B"/>
</linearGradient>
<linearGradient id="paint3_linear_4814_2" x1="183.33" y1="44.52" x2="233.28" y2="44.52" gradientUnits="userSpaceOnUse">
<stop stop-color="#F6AE3D"/>
<stop offset="1" stop-color="#F0902B"/>
</linearGradient>
<linearGradient id="paint4_linear_4814_2" x1="126.34" y1="105.42" x2="135.82" y2="105.42" gradientUnits="userSpaceOnUse">
<stop stop-color="#F6AE3D"/>
<stop offset="1" stop-color="#F0902B"/>
</linearGradient>
<linearGradient id="paint5_linear_4814_2" x1="244.81" y1="73.8104" x2="335.44" y2="73.8104" gradientUnits="userSpaceOnUse">
<stop stop-color="#F6AE3D"/>
<stop offset="1" stop-color="#F0902B"/>
</linearGradient>
<clipPath id="clip0_4814_2">
<rect width="336" height="137" fill="white"/>
</clipPath>
</defs>
</svg>
