<svg width="336" height="158" viewBox="0 0 336 158" fill="none" xmlns="http://www.w3.org/2000/svg">
<g clip-path="url(#clip0_4814_95)">
<path d="M84.0402 113.569C85.0102 113.569 85.5002 114.039 85.5002 114.959V120.979C85.5002 121.909 85.0102 122.369 84.0402 122.369H56.3502C54.7002 122.369 53.3402 122.509 52.2602 122.779C51.1802 123.059 50.3202 123.519 49.6602 124.169C49.0002 124.829 48.5502 125.709 48.3002 126.829C48.0502 127.949 47.9202 129.329 47.9202 130.979V131.609H83.7202C84.6502 131.609 85.1102 132.079 85.1102 132.999V138.009C85.1102 138.939 84.6402 139.399 83.7202 139.399H47.9202V140.479C47.9202 142.129 48.0502 143.509 48.3002 144.629C48.5502 145.749 49.0102 146.639 49.6602 147.289C50.3102 147.949 51.1802 148.409 52.2602 148.679C53.3402 148.959 54.7002 149.089 56.3502 149.089H84.0402C85.0102 149.089 85.5002 149.559 85.5002 150.479V156.499C85.5002 157.429 85.0102 157.889 84.0402 157.889H56.1602C52.9502 157.889 50.2202 157.599 47.9902 156.999C45.7502 156.409 43.9202 155.449 42.5102 154.119C41.0902 152.789 40.0602 151.059 39.4102 148.919C38.7502 146.789 38.4302 144.199 38.4302 141.159V130.259C38.4302 127.219 38.7602 124.639 39.4102 122.529C40.0602 120.419 41.1002 118.699 42.5102 117.369C43.9202 116.039 45.7502 115.069 47.9902 114.459C50.2302 113.849 52.9502 113.539 56.1602 113.539H84.0402V113.569Z" fill="#231F21"/>
<path d="M100.26 113.35C101.19 113.35 101.65 113.82 101.65 114.74V156.53C101.65 157.46 101.18 157.92 100.26 157.92H94.0502C93.1202 157.92 92.6602 157.46 92.6602 156.53V114.74C92.6602 113.81 93.1202 113.35 94.0502 113.35H100.26Z" fill="#231F21"/>
<path d="M163.94 123.141V114.781C163.94 113.851 164.4 113.391 165.33 113.391H171.6C172.53 113.391 172.99 113.861 172.99 114.781V123.141H184.08C184.84 123.141 185.22 123.521 185.22 124.281V129.481C185.22 130.241 184.84 130.621 184.08 130.621H172.99V145.321C172.99 147.091 173.35 148.391 174.07 149.221C174.79 150.041 176.2 150.461 178.32 150.461H184.47C185.23 150.461 185.61 150.841 185.61 151.601V156.801C185.61 157.561 185.23 157.941 184.47 157.941H176.8C174.27 157.941 172.17 157.711 170.53 157.241C168.88 156.781 167.56 156.041 166.57 155.021C165.58 154.011 164.89 152.701 164.51 151.091C164.13 149.491 163.94 147.561 163.94 145.321V130.621H157.92C157.16 130.621 156.78 130.241 156.78 129.481V124.281C156.78 123.521 157.16 123.141 157.92 123.141H163.94Z" fill="#231F21"/>
<path d="M223.37 123.141C224.13 123.141 224.51 123.521 224.51 124.281V129.601C224.51 130.361 224.13 130.741 223.37 130.741H206.52C205.17 130.741 204.05 130.861 203.16 131.091C202.27 131.321 201.56 131.701 201.04 132.231C200.52 132.761 200.14 133.481 199.93 134.381C199.72 135.291 199.61 136.401 199.61 137.711V156.531C199.61 157.461 199.14 157.921 198.22 157.921H192.01C191.04 157.921 190.55 157.461 190.55 156.531V136.001C190.55 133.721 190.8 131.771 191.31 130.141C191.82 128.511 192.65 127.181 193.81 126.151C194.97 125.121 196.51 124.361 198.44 123.871C200.36 123.381 202.76 123.141 205.63 123.141H223.37Z" fill="#231F21"/>
<path d="M237.24 110.27C238.17 110.27 238.63 110.74 238.63 111.66V117.68C238.63 118.65 238.16 119.14 237.24 119.14H231.03C230.06 119.14 229.57 118.65 229.57 117.68V111.66C229.57 110.73 230.06 110.27 231.03 110.27H237.24ZM237.24 123.14C238.17 123.14 238.63 123.63 238.63 124.6V156.53C238.63 157.46 238.16 157.92 237.24 157.92H231.03C230.1 157.92 229.64 157.46 229.64 156.53V124.6C229.64 123.63 230.1 123.14 231.03 123.14H237.24Z" fill="#231F21"/>
<path d="M285.72 123.141C286.48 123.141 286.86 123.521 286.86 124.281V129.601C286.86 130.361 286.48 130.741 285.72 130.741H261.14C259.75 130.741 258.61 130.861 257.72 131.091C256.83 131.321 256.14 131.701 255.63 132.231C255.12 132.761 254.76 133.481 254.55 134.381C254.34 135.291 254.23 136.401 254.23 137.711V143.351C254.23 144.701 254.33 145.821 254.55 146.711C254.76 147.601 255.12 148.301 255.63 148.831C256.14 149.361 256.83 149.741 257.72 149.971C258.61 150.201 259.75 150.321 261.14 150.321H285.72C286.48 150.321 286.86 150.701 286.86 151.461V156.781C286.86 157.541 286.48 157.921 285.72 157.921H260.25C257.38 157.921 254.98 157.691 253.06 157.221C251.14 156.761 249.6 156.011 248.43 154.971C247.27 153.941 246.43 152.601 245.93 150.981C245.42 149.351 245.17 147.401 245.17 145.121V136.001C245.17 133.721 245.42 131.771 245.93 130.141C246.44 128.511 247.27 127.181 248.43 126.151C249.59 125.121 251.13 124.361 253.06 123.871C254.98 123.381 257.38 123.141 260.25 123.141H285.72Z" fill="#231F21"/>
<path d="M321.01 123.139C323.84 123.139 326.23 123.379 328.17 123.869C330.11 124.359 331.66 125.119 332.83 126.149C333.99 127.189 334.83 128.519 335.33 130.139C335.84 131.769 336.09 133.719 336.09 135.999V152.849C336.09 153.859 336.02 154.699 335.87 155.349C335.72 156.009 335.47 156.519 335.11 156.899C334.75 157.279 334.28 157.539 333.68 157.689C333.09 157.839 332.33 157.909 331.4 157.909H301.24C299.38 157.909 297.83 157.729 296.58 157.369C295.33 157.009 294.33 156.469 293.57 155.749C292.81 155.029 292.27 154.099 291.95 152.959C291.63 151.819 291.48 150.469 291.48 148.899V145.859C291.48 144.549 291.64 143.379 291.95 142.339C292.27 141.309 292.81 140.429 293.57 139.709C294.33 138.989 295.33 138.449 296.58 138.089C297.83 137.729 299.38 137.549 301.24 137.549H327.03V136.349C327.03 135.339 326.92 134.469 326.71 133.749C326.5 133.029 326.14 132.449 325.63 132.009C325.12 131.569 324.43 131.239 323.54 131.029C322.65 130.819 321.51 130.709 320.12 130.709H293.63C292.87 130.709 292.49 130.329 292.49 129.569V124.249C292.49 123.489 292.87 123.109 293.63 123.109H321L321.01 123.139ZM325.19 150.949C325.87 150.949 326.34 150.789 326.62 150.469C326.89 150.149 327.03 149.589 327.03 148.789V143.209H303.84C302.53 143.209 301.61 143.469 301.08 143.999C300.55 144.529 300.29 145.299 300.29 146.309V147.639C300.29 148.779 300.55 149.609 301.08 150.139C301.61 150.669 302.53 150.929 303.84 150.929H325.19V150.949Z" fill="#231F21"/>
<path d="M0 110.78V21.1797H73.05V42.0897H26.06V54.9097H54.11V75.8197H25.99V89.8797H85.31V110.79H0V110.78Z" fill="#231F21"/>
<path d="M82.4002 47.4609C82.8802 47.4609 83.2602 47.5309 83.5202 47.6609C83.7802 47.7909 84.0502 47.9909 84.3102 48.2509L97.2702 60.0909L110.56 48.2509C110.78 47.9909 111.02 47.7909 111.28 47.6609C111.54 47.5309 111.92 47.4609 112.4 47.4609H119.84C120.45 47.4609 120.82 47.6709 120.93 48.0809C121.04 48.5009 120.92 48.8809 120.57 49.2309L103 65.3509L121.1 81.8709C121.41 82.2209 121.52 82.5909 121.43 82.9909C121.34 83.3809 120.99 83.5809 120.38 83.5809H112.02C111.54 83.5809 111.15 83.5109 110.87 83.3809C110.58 83.2509 110.33 83.0709 110.11 82.8509L96.1602 70.0809L81.8102 82.8509C81.5902 83.0709 81.3502 83.2409 81.0902 83.3809C80.8302 83.5209 80.4502 83.5809 79.9702 83.5809H72.5302C71.9202 83.5809 71.5502 83.3809 71.4402 82.9909C71.3302 82.6009 71.4402 82.2209 71.8002 81.8709L90.3602 64.8309L73.3802 49.2309C73.0302 48.8809 72.9002 48.5009 72.9902 48.0809C73.0802 47.6609 73.4302 47.4609 74.0402 47.4609H82.4002Z" fill="#231F21"/>
<path d="M160.5 47.4609C163.44 47.4609 165.92 47.7109 167.94 48.2209C169.96 48.7209 171.57 49.5109 172.78 50.5909C173.99 51.6709 174.85 53.0509 175.38 54.7409C175.91 56.4309 176.17 58.4609 176.17 60.8309V70.3109C176.17 72.6809 175.91 74.7109 175.38 76.4009C174.85 78.0909 173.99 79.4709 172.78 80.5509C171.57 81.6309 169.96 82.4009 167.94 82.8909C165.92 83.3709 163.44 83.6109 160.5 83.6109H135.82V111.021C135.82 111.981 135.34 112.471 134.37 112.471H127.92C126.91 112.471 126.41 111.991 126.41 111.021V60.8409C126.41 58.4709 126.67 56.4409 127.2 54.7509C127.73 53.0609 128.59 51.6809 129.8 50.6009C131.01 49.5309 132.61 48.7409 134.6 48.2309C136.6 47.7309 139.08 47.4709 142.07 47.4709H160.49L160.5 47.4609ZM135.83 75.6909H159.58C161.03 75.6909 162.21 75.5809 163.13 75.3609C164.05 75.1409 164.79 74.7509 165.33 74.1809C165.88 73.6109 166.26 72.8609 166.48 71.9409C166.7 71.0209 166.81 69.8609 166.81 68.4509V62.5909C166.81 61.2309 166.7 60.0809 166.48 59.1409C166.26 58.2009 165.88 57.4509 165.33 56.9009C164.78 56.3509 164.05 55.9609 163.13 55.7209C162.21 55.4809 161.02 55.3609 159.58 55.3609H143C141.6 55.3609 140.43 55.4809 139.51 55.7209C138.59 55.9609 137.85 56.3609 137.31 56.9009C136.76 57.4509 136.38 58.1909 136.16 59.1409C135.94 60.0809 135.83 61.2409 135.83 62.5909V75.6809V75.6909Z" fill="#231F21"/>
<path d="M217.62 47.4609C220.56 47.4609 223.04 47.7109 225.06 48.2209C227.08 48.7209 228.69 49.5109 229.9 50.5909C231.11 51.6709 231.97 53.0509 232.5 54.7409C233.03 56.4309 233.29 58.4609 233.29 60.8309V70.3109C233.29 72.6809 233.03 74.7109 232.5 76.4009C231.97 78.0909 231.11 79.4709 229.9 80.5509C228.69 81.6309 227.08 82.4009 225.06 82.8909C223.04 83.3709 220.56 83.6109 217.62 83.6109H199C196.02 83.6109 193.53 83.3709 191.53 82.8909C189.53 82.4109 187.93 81.6309 186.73 80.5509C185.52 79.4809 184.66 78.0909 184.13 76.4009C183.6 74.7109 183.34 72.6809 183.34 70.3109V60.8309C183.34 58.4609 183.6 56.4309 184.13 54.7409C184.66 53.0509 185.52 51.6709 186.73 50.5909C187.94 49.5209 189.54 48.7309 191.53 48.2209C193.53 47.7209 196.01 47.4609 199 47.4609H217.62ZM192.74 68.6509C192.74 70.0509 192.85 71.2209 193.07 72.1409C193.29 73.0609 193.67 73.8009 194.22 74.3409C194.77 74.8909 195.5 75.2809 196.42 75.5209C197.34 75.7609 198.5 75.8809 199.91 75.8809H216.69C218.14 75.8809 219.32 75.7609 220.24 75.5209C221.16 75.2809 221.9 74.8809 222.44 74.3409C222.99 73.7909 223.37 73.0609 223.59 72.1409C223.81 71.2209 223.92 70.0609 223.92 68.6509V62.4009C223.92 61.0409 223.81 59.9009 223.59 58.9809C223.37 58.0609 222.99 57.3109 222.44 56.7409C221.89 56.1709 221.16 55.7809 220.24 55.5609C219.32 55.3409 218.13 55.2309 216.69 55.2309H199.91C198.51 55.2309 197.34 55.3409 196.42 55.5609C195.5 55.7809 194.76 56.1709 194.22 56.7409C193.67 57.3109 193.29 58.0609 193.07 58.9809C192.85 59.9009 192.74 61.0409 192.74 62.4009V68.6509Z" fill="#231F21"/>
<path d="M125.54 124.821V123.471H125.55V123.141H123.38C120.51 123.141 118.11 123.381 116.19 123.871C114.27 124.361 112.73 125.121 111.56 126.151C110.4 127.191 109.56 128.521 109.06 130.141C108.55 131.771 108.3 133.721 108.3 136.001V145.121C108.3 147.401 108.55 149.361 109.06 150.981C109.57 152.611 110.4 153.941 111.56 154.971C112.72 156.011 114.26 156.751 116.19 157.221C118.11 157.691 120.51 157.921 123.38 157.921H150.69C151.45 157.921 151.83 157.541 151.83 156.781V151.461C151.83 150.701 151.45 150.321 150.69 150.321H124.27C121.52 150.321 119.68 149.881 118.73 148.991C117.78 148.101 117.3 146.671 117.3 144.681V143.161H149.3C150.52 143.161 151.43 142.901 152.02 142.371C152.61 141.841 152.91 140.901 152.91 139.551V133.531C152.91 131.631 152.74 130.011 152.4 128.681C152.06 127.351 151.48 126.271 150.66 125.451C149.84 124.631 148.72 124.041 147.3 123.681C145.88 123.321 144.1 123.141 141.95 123.141H136.65V124.861L136.64 130.171H140.18C141.66 130.171 142.67 130.451 143.22 130.991C143.77 131.541 144.04 132.471 144.04 133.781V136.441C144.04 137.161 143.68 137.521 142.96 137.521H117.3V135.811C117.3 133.781 117.78 132.341 118.73 131.471C119.68 130.601 121.53 130.171 124.27 130.171H125.54" fill="#231F21"/>
<path d="M135.82 121.401C135.82 120.441 135.33 119.951 134.32 119.941L127.87 119.891C126.91 119.891 126.42 120.361 126.41 121.331L126.39 123.451H126.38V124.801L126.34 129.681H126.38V131.511C126.38 132.471 126.88 132.961 127.89 132.961H134.34C135.3 132.961 135.79 132.481 135.79 131.511V124.841L135.82 121.411V121.401Z" fill="#231F21"/>
<path d="M330.47 79.4004H249.78C247.035 79.4004 244.81 81.6255 244.81 84.3704V105.26C244.81 108.005 247.035 110.23 249.78 110.23H330.47C333.215 110.23 335.44 108.005 335.44 105.26V84.3704C335.44 81.6255 333.215 79.4004 330.47 79.4004Z" fill="#231F21"/>
<path d="M250.83 97.2114C250.83 95.3814 252.03 94.1614 254.97 93.9514L260.2 93.6214C263.54 93.4114 263.77 93.3514 263.77 91.8914C263.77 90.6714 263.65 90.4114 260.72 90.4114H257.69C255.75 90.4114 255.15 90.7014 255.15 92.2414V92.8814H250.82V91.1314C250.82 88.1814 252.55 87.1914 256.68 87.1914H262.7C266.99 87.1914 268.1 88.4714 268.1 91.5814C268.1 95.9714 267.3 96.7114 261.96 97.0014L257.24 97.2514C255.32 97.3514 255.03 97.7214 255.03 99.0614H268.31V102.281H250.83V97.2114Z" fill="white"/>
<path d="M270.73 93.0414C270.73 88.5014 272.38 87.1914 277.27 87.1914H282.63C287.51 87.1914 289.17 88.5114 289.17 93.0414V97.2014C289.17 101.081 287.4 102.441 283.83 102.441H276.08C272.52 102.441 270.74 101.081 270.74 97.2014V93.0414H270.73ZM275.18 96.4214C275.18 97.9714 275.67 98.7314 277.82 98.7314H282.07C284.21 98.7314 284.71 97.9714 284.71 96.4214V93.2014C284.71 91.6514 284.22 90.8914 282.07 90.8914H277.82C275.68 90.8914 275.18 91.6514 275.18 93.2014V96.4214Z" fill="white"/>
<path d="M291.57 97.2114C291.57 95.3814 292.77 94.1614 295.71 93.9514L300.94 93.6214C304.28 93.4114 304.51 93.3514 304.51 91.8914C304.51 90.6714 304.39 90.4114 301.46 90.4114H298.43C296.49 90.4114 295.89 90.7014 295.89 92.2414V92.8814H291.56V91.1314C291.56 88.1814 293.29 87.1914 297.42 87.1914H303.44C307.73 87.1914 308.84 88.4714 308.84 91.5814C308.84 95.9714 308.04 96.7114 302.7 97.0014L297.98 97.2514C296.06 97.3514 295.77 97.7214 295.77 99.0614H309.05V102.281H291.57V97.2114Z" fill="white"/>
<path d="M318.885 99.6043H323.245C325.079 99.6043 325.597 99.1942 325.597 97.8561C325.597 96.5396 325.101 96.1511 323.158 96.1511H318.971C317.029 96.1511 316.532 96.5396 316.532 97.8561C316.532 99.1942 317.05 99.6043 318.885 99.6043ZM312 97.4892V93.1295C312 88.3813 313.727 87 318.842 87H323.827C328.381 87 328.946 88.5575 328.946 90.5431V91.7734L325.446 91.7914C325.446 90.7338 324.755 90.3669 323.072 90.3669H318.863C317.223 90.3669 316.532 91.0144 316.532 92.2446V94.1007C317.309 93.3237 318.216 92.9137 320.094 92.9137H324.561C328.536 92.8957 329.356 94.428 329.356 97.2554V98.6151C329.356 102.457 328.212 102.5 324.5 102.5H317.5C313.766 102.5 312 101.547 312 97.4892Z" fill="white"/>
</g>
<defs>
<clipPath id="clip0_4814_95">
<rect width="336" height="158" fill="white"/>
</clipPath>
</defs>
</svg>
