<svg width="233" height="112" viewBox="0 0 233 112" fill="none" xmlns="http://www.w3.org/2000/svg">
<g clip-path="url(#clip0_4814_50)">
<path d="M0 89.7797V0.179688H73.05V21.0897H26.06V33.9097H54.11V54.8197H25.99V68.8797H85.31V89.7897H0V89.7797Z" fill="url(#paint0_linear_4814_50)"/>
<path d="M82.4002 26.46C82.8802 26.46 83.2602 26.53 83.5202 26.66C83.7802 26.79 84.0502 26.99 84.3102 27.25L97.2702 39.09L110.56 27.25C110.78 26.99 111.02 26.79 111.28 26.66C111.54 26.53 111.92 26.46 112.4 26.46H119.84C120.45 26.46 120.82 26.67 120.93 27.08C121.04 27.5 120.92 27.88 120.57 28.23L103 44.35L121.1 60.87C121.41 61.22 121.52 61.59 121.43 61.99C121.34 62.38 120.99 62.58 120.38 62.58H112.02C111.54 62.58 111.15 62.51 110.87 62.38C110.58 62.25 110.33 62.07 110.11 61.85L96.1602 49.08L81.8102 61.85C81.5902 62.07 81.3502 62.24 81.0902 62.38C80.8302 62.52 80.4502 62.58 79.9702 62.58H72.5302C71.9202 62.58 71.5502 62.38 71.4402 61.99C71.3302 61.6 71.4402 61.22 71.8002 60.87L90.3602 43.83L73.3802 28.23C73.0302 27.88 72.9002 27.5 72.9902 27.08C73.0802 26.66 73.4302 26.46 74.0402 26.46H82.4002Z" fill="url(#paint1_linear_4814_50)"/>
<path d="M160.5 26.46C163.44 26.46 165.92 26.71 167.94 27.22C169.96 27.72 171.57 28.51 172.78 29.59C173.99 30.67 174.85 32.05 175.38 33.74C175.91 35.43 176.17 37.46 176.17 39.83V49.31C176.17 51.68 175.91 53.71 175.38 55.4C174.85 57.09 173.99 58.47 172.78 59.55C171.57 60.63 169.96 61.4 167.94 61.89C165.92 62.37 163.44 62.61 160.5 62.61H135.82V90.02C135.82 90.98 135.34 91.47 134.37 91.47H127.92C126.91 91.47 126.41 90.99 126.41 90.02V39.84C126.41 37.47 126.67 35.44 127.2 33.75C127.73 32.06 128.59 30.68 129.8 29.6C131.01 28.53 132.61 27.74 134.6 27.23C136.6 26.73 139.08 26.47 142.07 26.47H160.49L160.5 26.46ZM135.83 54.69H159.58C161.03 54.69 162.21 54.58 163.13 54.36C164.05 54.14 164.79 53.75 165.33 53.18C165.88 52.61 166.26 51.86 166.48 50.94C166.7 50.02 166.81 48.86 166.81 47.45V41.59C166.81 40.23 166.7 39.08 166.48 38.14C166.26 37.2 165.88 36.45 165.33 35.9C164.78 35.35 164.05 34.96 163.13 34.72C162.21 34.48 161.02 34.36 159.58 34.36H143C141.6 34.36 140.43 34.48 139.51 34.72C138.59 34.96 137.85 35.36 137.31 35.9C136.76 36.45 136.38 37.19 136.16 38.14C135.94 39.08 135.83 40.24 135.83 41.59V54.68V54.69Z" fill="url(#paint2_linear_4814_50)"/>
<path d="M217.62 26.46C220.56 26.46 223.04 26.71 225.06 27.22C227.08 27.72 228.69 28.51 229.9 29.59C231.11 30.67 231.97 32.05 232.5 33.74C233.03 35.43 233.29 37.46 233.29 39.83V49.31C233.29 51.68 233.03 53.71 232.5 55.4C231.97 57.09 231.11 58.47 229.9 59.55C228.69 60.63 227.08 61.4 225.06 61.89C223.04 62.37 220.56 62.61 217.62 62.61H199C196.02 62.61 193.53 62.37 191.53 61.89C189.53 61.41 187.93 60.63 186.73 59.55C185.52 58.48 184.66 57.09 184.13 55.4C183.6 53.71 183.34 51.68 183.34 49.31V39.83C183.34 37.46 183.6 35.43 184.13 33.74C184.66 32.05 185.52 30.67 186.73 29.59C187.94 28.52 189.54 27.73 191.53 27.22C193.53 26.72 196.01 26.46 199 26.46H217.62ZM192.74 47.65C192.74 49.05 192.85 50.22 193.07 51.14C193.29 52.06 193.67 52.8 194.22 53.34C194.77 53.89 195.5 54.28 196.42 54.52C197.34 54.76 198.5 54.88 199.91 54.88H216.69C218.14 54.88 219.32 54.76 220.24 54.52C221.16 54.28 221.9 53.88 222.44 53.34C222.99 52.79 223.37 52.06 223.59 51.14C223.81 50.22 223.92 49.06 223.92 47.65V41.4C223.92 40.04 223.81 38.9 223.59 37.98C223.37 37.06 222.99 36.31 222.44 35.74C221.89 35.17 221.16 34.78 220.24 34.56C219.32 34.34 218.13 34.23 216.69 34.23H199.91C198.51 34.23 197.34 34.34 196.42 34.56C195.5 34.78 194.76 35.17 194.22 35.74C193.67 36.31 193.29 37.06 193.07 37.98C192.85 38.9 192.74 40.04 192.74 41.4V47.65Z" fill="url(#paint3_linear_4814_50)"/>
<path d="M135.82 100.4C135.82 99.4397 135.33 98.9497 134.32 98.9397L127.87 98.8896C126.91 98.8896 126.42 99.3597 126.41 100.33L126.39 102.45H126.38V103.8L126.34 108.68H126.38V110.51C126.38 111.47 126.88 111.96 127.89 111.96H134.34C135.3 111.96 135.79 111.48 135.79 110.51V103.84L135.82 100.41V100.4Z" fill="url(#paint4_linear_4814_50)"/>
</g>
<defs>
<linearGradient id="paint0_linear_4814_50" x1="0" y1="44.9797" x2="85.32" y2="44.9797" gradientUnits="userSpaceOnUse">
<stop stop-color="#F6AE3D"/>
<stop offset="1" stop-color="#F0902B"/>
</linearGradient>
<linearGradient id="paint1_linear_4814_50" x1="71.4002" y1="44.52" x2="121.45" y2="44.52" gradientUnits="userSpaceOnUse">
<stop stop-color="#F6AE3D"/>
<stop offset="1" stop-color="#F0902B"/>
</linearGradient>
<linearGradient id="paint2_linear_4814_50" x1="126.42" y1="58.95" x2="176.16" y2="58.95" gradientUnits="userSpaceOnUse">
<stop stop-color="#F6AE3D"/>
<stop offset="1" stop-color="#F0902B"/>
</linearGradient>
<linearGradient id="paint3_linear_4814_50" x1="183.33" y1="44.52" x2="233.28" y2="44.52" gradientUnits="userSpaceOnUse">
<stop stop-color="#F6AE3D"/>
<stop offset="1" stop-color="#F0902B"/>
</linearGradient>
<linearGradient id="paint4_linear_4814_50" x1="126.34" y1="105.42" x2="135.82" y2="105.42" gradientUnits="userSpaceOnUse">
<stop stop-color="#F6AE3D"/>
<stop offset="1" stop-color="#F0902B"/>
</linearGradient>
<clipPath id="clip0_4814_50">
<rect width="233" height="112" fill="white"/>
</clipPath>
</defs>
</svg>
