<svg viewBox="380 193 285 285" fill="none" xmlns="http://www.w3.org/2000/svg">
<path d="M528.196 197.111C451.892 194.088 387.578 253.373 384.55 329.525C381.522 405.686 440.925 469.867 517.229 472.889C593.536 475.912 657.845 416.63 660.874 340.47C663.903 264.318 604.502 200.133 528.196 197.111ZM586.564 399.272C584.84 402.294 581.49 403.813 578.237 403.357C577.233 403.216 576.239 402.888 575.305 402.357C557.03 391.974 537.112 385.216 516.106 382.269C495.101 379.323 474.089 380.34 453.654 385.294C449.223 386.367 444.759 383.654 443.683 379.231C442.607 374.809 445.327 370.354 449.757 369.28C472.229 363.833 495.325 362.714 518.404 365.951C541.485 369.188 563.377 376.618 583.473 388.035C587.435 390.287 588.819 395.318 586.564 399.272ZM604.736 363.045C601.916 368.248 595.402 370.187 590.191 367.371C568.802 355.824 545.65 348.244 521.377 344.839C497.105 341.435 472.756 342.353 449.007 347.568C447.722 347.85 446.439 347.89 445.208 347.717C440.895 347.112 437.21 343.903 436.219 339.409C434.946 333.632 438.605 327.917 444.394 326.646C470.648 320.88 497.554 319.865 524.365 323.625C551.176 327.386 576.76 335.764 600.402 348.528C605.616 351.343 607.556 357.842 604.736 363.045ZM624.878 322.208C622.225 327.3 616.707 329.94 611.32 329.184C609.873 328.981 608.435 328.533 607.065 327.823C582.164 314.9 555.343 306.356 527.349 302.43C499.356 298.503 471.215 299.338 443.709 304.91C436.558 306.357 429.587 301.748 428.136 294.612C426.686 287.477 431.304 280.519 438.454 279.07C468.908 272.901 500.054 271.976 531.026 276.32C561.999 280.665 591.683 290.122 619.253 304.43C625.725 307.789 628.243 315.749 624.878 322.208Z" fill="currentColor"/>
</svg>
