<svg viewBox="375 190 995 295" fill="none" xmlns="http://www.w3.org/2000/svg">
<path d="M528.196 197.111C451.892 194.088 387.578 253.373 384.55 329.525C381.522 405.686 440.925 469.867 517.229 472.889C593.536 475.912 657.845 416.63 660.874 340.47C663.903 264.318 604.502 200.133 528.196 197.111ZM586.564 399.272C584.84 402.294 581.49 403.813 578.237 403.357C577.233 403.216 576.239 402.888 575.305 402.357C557.03 391.974 537.112 385.216 516.106 382.269C495.101 379.323 474.089 380.34 453.654 385.294C449.223 386.367 444.759 383.654 443.683 379.231C442.607 374.809 445.327 370.354 449.757 369.28C472.229 363.833 495.325 362.714 518.404 365.951C541.485 369.188 563.377 376.618 583.473 388.035C587.435 390.287 588.819 395.318 586.564 399.272ZM604.736 363.045C601.916 368.248 595.402 370.187 590.191 367.371C568.802 355.824 545.65 348.244 521.377 344.839C497.105 341.435 472.756 342.353 449.007 347.568C447.722 347.85 446.439 347.89 445.208 347.717C440.895 347.112 437.21 343.903 436.219 339.409C434.946 333.632 438.605 327.917 444.394 326.646C470.648 320.88 497.554 319.865 524.365 323.625C551.176 327.386 576.76 335.764 600.402 348.528C605.616 351.343 607.556 357.842 604.736 363.045ZM624.878 322.208C622.225 327.3 616.707 329.94 611.32 329.184C609.873 328.981 608.435 328.533 607.065 327.823C582.164 314.9 555.343 306.356 527.349 302.43C499.356 298.503 471.215 299.338 443.709 304.91C436.558 306.357 429.587 301.748 428.136 294.612C426.686 287.477 431.304 280.519 438.454 279.07C468.908 272.901 500.054 271.976 531.026 276.32C561.999 280.665 591.683 290.122 619.253 304.43C625.725 307.789 628.243 315.749 624.878 322.208ZM781.723 321.802L772.145 318.955C752.887 313.26 747.487 311.124 747.487 303.396C747.487 296.074 755.638 288.142 773.571 288.142C791.301 288.142 806.28 296.786 814.024 303.192C815.348 304.311 816.775 303.802 816.775 302.074V276.752C816.775 275.633 816.469 275.023 815.654 274.413C806.076 267.295 789.467 262.108 772.756 262.108C738.724 262.108 718.345 281.43 718.345 303.396C718.345 328.209 734.138 336.853 760.121 344.175L771.33 347.327C790.792 352.819 794.358 357.7 794.358 365.225C794.358 377.835 784.78 381.7 770.515 381.7C752.581 381.7 730.674 371.225 720.383 358.412C719.466 357.293 718.345 357.802 718.345 359.124V386.988C718.345 388.106 718.447 388.615 719.262 389.53C727.821 398.886 748.302 407.123 772.145 407.123C801.491 407.123 823.5 390.038 823.5 363.598C823.5 343.056 811.374 330.65 781.723 321.802ZM898.188 301.565C878.828 301.565 867.62 313.362 861.099 325.158V304.819C861.099 303.904 860.589 303.396 859.672 303.396H834.097C833.18 303.396 832.67 303.904 832.67 304.819V435.292C832.67 436.207 833.18 436.716 834.097 436.716H859.672C860.589 436.716 861.099 436.207 861.099 435.292V383.123C867.62 394.92 878.625 406.513 898.392 406.513C924.477 406.513 943.226 384.038 943.226 353.836C943.226 323.633 924.273 301.565 898.188 301.565ZM890.648 381.903C876.994 381.903 865.174 368.479 860.487 353.632C865.174 337.971 875.975 325.972 890.648 325.972C904.608 325.972 914.288 336.548 914.288 353.836C914.288 371.123 904.608 381.903 890.648 381.903ZM1358.85 303.396H1332.77C1331.85 303.396 1331.44 303.599 1331.04 304.514L1304.75 367.564L1278.36 304.514C1277.95 303.599 1277.54 303.396 1276.62 303.396H1234.44V296.684C1234.44 285.701 1241.88 280.616 1251.46 280.616C1257.16 280.616 1263.38 283.565 1267.76 286.21C1268.78 286.82 1269.49 286.108 1269.08 285.193L1259.91 263.328C1259.61 262.617 1259.2 262.21 1258.49 261.803C1254 259.464 1246.67 257.43 1239.53 257.43C1217.93 257.43 1205.5 273.905 1205.5 294.853V303.396H1188.18C1187.26 303.396 1186.75 303.904 1186.75 304.819V325.158C1186.75 326.073 1187.26 326.582 1188.18 326.582H1205.5V403.259C1205.5 404.174 1206.01 404.682 1206.93 404.682H1233.01C1233.93 404.682 1234.44 404.174 1234.44 403.259V326.582H1256.75L1289.16 396.852L1271.73 435.089C1271.22 436.207 1271.83 436.716 1272.85 436.716H1300.67C1301.59 436.716 1302 436.512 1302.4 435.597L1359.97 305.023C1360.38 304.108 1359.87 303.396 1358.85 303.396ZM1006.81 300.955C973.794 300.955 951.071 324.243 951.071 354.039C951.071 383.632 973.794 407.123 1006.81 407.123C1039.72 407.123 1062.65 383.632 1062.65 354.039C1062.65 324.243 1039.72 300.955 1006.81 300.955ZM1006.91 382.208C991.116 382.208 979.908 370.208 979.908 354.039C979.908 337.87 991.116 325.87 1006.91 325.87C1022.6 325.87 1033.81 337.87 1033.81 354.039C1033.81 370.208 1022.6 382.208 1006.91 382.208ZM1162.4 257.227C1152.62 257.227 1145.49 264.142 1145.49 273.294C1145.49 282.447 1152.62 289.362 1162.4 289.362C1172.39 289.362 1179.52 282.447 1179.52 273.294C1179.52 264.142 1172.39 257.227 1162.4 257.227ZM1175.54 303.396H1149.46C1148.54 303.396 1148.03 303.904 1148.03 304.819V403.259C1148.03 404.174 1148.54 404.682 1149.46 404.682H1175.54C1176.46 404.682 1176.97 404.174 1176.97 403.259V304.819C1176.97 303.904 1176.46 303.396 1175.54 303.396ZM1137.13 379.361C1134.18 380.988 1130.3 382.31 1125.01 382.31C1116.65 382.31 1111.35 377.428 1111.35 366.649V326.582H1136.82C1137.74 326.582 1138.25 326.073 1138.25 325.158V304.819C1138.25 303.904 1137.74 303.396 1136.82 303.396H1111.35V276.854C1111.35 275.735 1110.64 275.125 1109.62 275.938L1064.07 311.734C1063.46 312.243 1063.26 312.751 1063.26 313.565V325.158C1063.26 326.073 1063.77 326.582 1064.68 326.582H1082.41V370.92C1082.41 394.92 1096.27 406.106 1116.04 406.106C1124.6 406.106 1132.85 403.869 1137.74 401.021C1138.46 400.615 1138.56 400.208 1138.56 399.496V380.174C1138.56 379.157 1138.05 378.852 1137.13 379.361Z" fill="#1ED760"/>
</svg>
